<?xml version="1.0" encoding="UTF-8" standalone="no"?>
<!-- Created with Inkscape (http://www.inkscape.org/) -->

<svg
   width="512"
   height="512"
   viewBox="0 0 135.46666 135.46667"
   version="1.1"
   id="svg1"
   xml:space="preserve"
   inkscape:version="1.3.2 (091e20e, 2023-11-25)"
   sodipodi:docname="drawing.svg"
   xmlns:inkscape="http://www.inkscape.org/namespaces/inkscape"
   xmlns:sodipodi="http://sodipodi.sourceforge.net/DTD/sodipodi-0.dtd"
   xmlns="http://www.w3.org/2000/svg"
   xmlns:svg="http://www.w3.org/2000/svg"><sodipodi:namedview
     id="namedview1"
     pagecolor="#ffffff"
     bordercolor="#000000"
     borderopacity="0.25"
     inkscape:showpageshadow="2"
     inkscape:pageopacity="0.0"
     inkscape:pagecheckerboard="0"
     inkscape:deskcolor="#d1d1d1"
     inkscape:document-units="mm"
     inkscape:zoom="0.84096521"
     inkscape:cx="340.67997"
     inkscape:cy="337.70719"
     inkscape:window-width="1728"
     inkscape:window-height="1051"
     inkscape:window-x="0"
     inkscape:window-y="38"
     inkscape:window-maximized="0"
     inkscape:current-layer="layer1" /><defs
     id="defs1" /><g
     inkscape:label="Layer 1"
     inkscape:groupmode="layer"
     id="layer1"><path
       fill-rule="evenodd"
       clip-rule="evenodd"
       d="m 26.228563,28.398842 c 0,-2.504904 2.030664,-4.535569 4.535569,-4.535569 h 9.071139 v 13.606709 c 0,2.504904 2.030666,4.53557 4.535571,4.53557 h 31.748987 c 2.504994,0 4.535569,-2.030666 4.535569,-4.53557 V 23.863273 h 0.778305 c 1.202832,0 2.356227,0.477867 3.2071,1.328423 l 12.828382,12.828541 c 0.850427,0.8506 1.328464,2.004223 1.328464,3.207147 v 50.669431 c 0,2.504988 -2.030558,4.535566 -4.535546,4.535566 H 89.72654 V 64.6834 c 0,-2.504996 -2.030577,-4.53557 -4.535572,-4.53557 H 39.835271 c -2.504904,0 -4.535569,2.030574 -4.535569,4.53557 v 31.748981 h -4.53557 c -2.504905,0 -4.535569,-2.030578 -4.535569,-4.535566 z M 44.370842,96.432381 H 80.655398 V 69.218969 H 44.370842 Z M 71.584259,23.863273 H 48.906411 v 9.071139 H 71.584259 Z M 30.764132,14.792134 c -7.514758,0 -13.606709,6.09195 -13.606709,13.606708 v 63.497973 c 0,7.514951 6.091951,13.606675 13.606709,13.606675 h 63.497971 c 7.514957,0 13.606687,-6.091724 13.606687,-13.606675 V 41.227384 c 0,-3.608727 -1.4337,-7.069639 -3.98541,-9.621395 L 91.055001,18.777447 c -2.551707,-2.551756 -6.0128,-3.985313 -9.621298,-3.985313 z"
       fill="#000000"
       id="path2"
       style="stroke-width:4.53557;fill:#ce1ebb;fill-opacity:1" /><path
       fill-rule="evenodd"
       clip-rule="evenodd"
       d="m 20.472729,33.171468 c 0,-2.504904 2.03066,-4.535569 4.53557,-4.535569 h 9.07114 v 13.606709 c 0,2.504904 2.03066,4.53557 4.53557,4.53557 h 31.74899 c 2.50499,0 4.53556,-2.030666 4.53556,-4.53557 V 28.635899 h 0.77831 c 1.20283,0 2.35623,0.477867 3.2071,1.328423 l 12.8284,12.828541 c 0.85043,0.8506 1.32847,2.004223 1.32847,3.207147 v 50.669431 c 0,2.504991 -2.03057,4.535579 -4.53557,4.535579 h -4.53556 V 69.456026 c 0,-2.504996 -2.03058,-4.53557 -4.53558,-4.53557 h -45.35569 c -2.50491,0 -4.53557,2.030574 -4.53557,4.53557 v 31.748994 h -4.53557 c -2.50491,0 -4.53557,-2.030588 -4.53557,-4.535579 z m 18.14228,68.033552 h 36.28455 V 73.991595 h -36.28455 z m 27.21342,-72.569121 h -22.67785 v 9.071139 h 22.67785 z M 25.008299,19.56476 c -7.51476,0 -13.60671,6.09195 -13.60671,13.606708 v 63.497973 c 0,7.514979 6.09195,13.606709 13.60671,13.606709 h 63.49797 c 7.51499,0 13.606721,-6.09173 13.606721,-13.606709 V 46.00001 c 0,-3.608727 -1.4337,-7.069639 -3.985411,-9.621395 L 85.299169,23.550073 c -2.55171,-2.551756 -6.0128,-3.985313 -9.6213,-3.985313 z"
       fill="#000000"
       id="path1"
       style="stroke-width:4.53557" /></g></svg>
