<?xml version="1.0" encoding="utf-8"?><!-- Uploaded to: SVG Repo, www.svgrepo.com, Generator: SVG Repo Mixer Tools -->
<svg width="800px" height="800px" viewBox="0 0 24 24" fill="none" xmlns="http://www.w3.org/2000/svg">
<path d="M4.65511 9.87598C3.74757 10.602 3.2938 10.965 3.12952 11.4036C2.98547 11.7881 2.98547 12.2118 3.12952 12.5963C3.2938 13.0349 3.74757 13.3979 4.65511 14.1239L9.40064 17.9203C10.2328 18.5861 10.6489 18.9189 10.9991 18.9193C11.3036 18.9196 11.5917 18.7812 11.7817 18.5432C12.0002 18.2695 12.0002 17.7366 12.0002 16.6709V7.32894C12.0002 6.26324 12.0002 5.73039 11.7817 5.45671C11.5917 5.2187 11.3036 5.08024 10.9991 5.08057C10.6489 5.08095 10.2328 5.41381 9.40064 6.07955L4.65511 9.87598Z" stroke="#000000" stroke-width="2" stroke-linejoin="round"/>
<path d="M14.1236 9.50116C13.0559 10.3553 12.5221 10.7824 12.3288 11.2983C12.1594 11.7507 12.1594 12.2492 12.3288 12.7015C12.5221 13.2175 13.0559 13.6446 14.1236 14.4987L18.4006 17.9203C19.2328 18.5861 19.6489 18.9189 19.9991 18.9193C20.3036 18.9196 20.5917 18.7812 20.7817 18.5432C21.0002 18.2695 21.0002 17.7366 21.0002 16.6709V7.32894C21.0002 6.26324 21.0002 5.73039 20.7817 5.45671C20.5917 5.2187 20.3036 5.08024 19.9991 5.08057C19.6489 5.08095 19.2328 5.41381 18.4006 6.07955L14.1236 9.50116Z" stroke="#000000" stroke-width="2" stroke-linejoin="round"/>
</svg>