<?xml version="1.0" encoding="utf-8"?><!-- Uploaded to: SVG Repo, www.svgrepo.com, Generator: SVG Repo Mixer Tools -->
<svg width="800px" height="800px" viewBox="0 0 24 24" fill="none" xmlns="http://www.w3.org/2000/svg">
<path d="M19 20V4M5 16.671V7.329C5 6.2633 5 5.73045 5.21846 5.45677C5.40845 5.21876 5.69654 5.0803 6.00108 5.08063C6.35125 5.081 6.76734 5.41387 7.59951 6.07961L13.4383 10.7506C13.9721 11.1777 14.239 11.3912 14.3357 11.6492C14.4204 11.8754 14.4204 12.1246 14.3357 12.3508C14.239 12.6088 13.9721 12.8223 13.4383 13.2494L7.59951 17.9204C6.76734 18.5861 6.35125 18.919 6.00108 18.9194C5.69654 18.9197 5.40845 18.7812 5.21846 18.5432C5 18.2695 5 17.7367 5 16.671Z" stroke="#000000" stroke-width="2" stroke-linecap="round" stroke-linejoin="round"/>
</svg>