<svg xmlns="http://www.w3.org/2000/svg" viewBox="0 0 614.88 100" fill="none">
<title>TapeDeck.link</title>
<g transform="scale(0.07582) translate(0 938.1602475872787) scale(1 -1)">
<path fill="#ce1ebb" d="M 455.8,-295.9 C 455.8,-295.9 448.9,-148.4 497.3,-113.8 C 545.7,-79.3 577.9,-79.3 577.9,-79.3 L 554.9,-318.9 L 455.8,-295.9"/>
<path fill="#ce1ebb" d="M 1027.3,-63.1 C 1027.3,-63.1 1137.9,-67.8 1163.3,-141.5 C 1188.6,-215.2 1190.9,-265.9 1190.9,-265.9 L 1285.4,-261.3 C 1285.4,-261.3 1322.3,-102.3 1234.7,-40.1 C 1147.2,22.1 1018.1,8.3 1018.1,8.3 L 1027.3,-63.1"/>
<path class="cassetteMarkBack0" fill="none" stroke="#ce1ebb" stroke-linecap="round" stroke-linejoin="round" stroke-width="80.65" d="M 546.6,237.5 C 448.1,237.5 367.4,363 367.4,461.6 C 367.4,560.2 448.1,694.6 546.6,694.6 M 546.6,237.5 L 1263.6,237.5 M 546.6,694.6 L 1263.6,694.6 M 1263.6,237.5 C 1362.1,237.5 1442.8,363 1442.8,461.6 C 1442.8,560.2 1371.9,701.1 1263.6,694.6 M 457.5,-315.8 L 457.5,-208.2 C 457.5,-127.6 466.5,-100.7 484.4,-73.8 C 502.3,-46.9 529.2,-20 556.1,-11.1 C 592,6.8 627.8,7.4 708.5,6.8 L 1039.5,4.5 C 1120.2,4 1156,4.5 1191.9,-13.4 C 1220.4,-28.9 1242.4,-50 1259.5,-73.7 C 1271.7,-95.7 1290.4,-129.9 1290.4,-210.5 L 1290.4,-309.1"/>
<path class="cassetteMarkBack1" fill="none" stroke="#ce1ebb" stroke-linecap="round" stroke-linejoin="round" stroke-width="179.23" d="M 546.6,282.3 C 702.8,238.6 746.6,330.7 746.6,429.3 C 746.6,527.9 645.2,640.8 546.6,640.8 M 546.6,282.3 C 448.1,282.3 367.4,363 367.4,461.6 C 367.4,560.2 448.1,640.8 546.6,640.8 M 1263.6,282.3 C 1362.1,282.3 1442.8,363 1442.8,461.6 C 1442.8,560.2 1362.1,640.8 1263.6,640.8 M 1263.6,282.3 C 1165,282.3 1084.3,363 1084.3,461.6 C 1084.3,560.2 1165,640.8 1263.6,640.8 M 385.3,-318.1 L 1344.2,-318.1 C 1442.8,-318.1 1577.2,-318.1 1613.1,-300.1 C 1648.9,-282.2 1675.8,-255.3 1693.7,-219.5 C 1711.6,-183.6 1711.6,-129.9 1711.6,-31.3 L 1711.6,625.3 C 1711.6,723.9 1690.4,769.5 1669.3,798.8 C 1645.8,831.3 1590.2,879.5 1554.4,897.4 C 1518.5,915.3 1475.4,938.3 1385.8,938.2 L 385.3,936.5 C 286.8,936.4 233,936.5 197.2,918.6 C 161.3,900.7 134.4,873.8 116.5,838 C 98.6,802.1 98.6,748.3 98.6,649.8 L 98.6,-31.3 C 98.6,-129.9 98.6,-183.6 116.5,-219.5 C 134.4,-255.3 161.3,-282.2 197.2,-300.1 C 233,-318.1 286.8,-318.1 385.3,-318.1"/>
<path class="cassetteMarkFront0" fill="none" stroke="#111111" stroke-linecap="round" stroke-linejoin="round" stroke-width="80.65" d="M 439.1,170.7 L 1169.9,169.9 M 447.9,627.3 L 1169.1,627.8 M 421.2,-380.8 L 421.2,-282.2 C 421.2,-201.6 430.1,-165.7 448.1,-138.8 C 466,-112 494.5,-90 524.7,-79.4 C 560.5,-70.4 591.5,-67.1 672.1,-67.1 L 940.9,-67.1 C 1021.6,-67.1 1059.1,-68.8 1092.5,-80.2 C 1124.3,-91.6 1147.1,-112 1165,-138.8 C 1182.9,-165.7 1191.9,-192.6 1191.9,-273.3 L 1191.9,-380.8"/>
<path class="cassetteMarkFront1" fill="none" stroke="#111111" stroke-linecap="round" stroke-linejoin="round" stroke-width="179.23" d="M 448.1,219.6 C 546.6,219.6 627.3,300.3 627.3,398.8 C 627.3,497.4 546.6,578.1 448.1,578.1 M 448.1,219.6 C 349.5,219.6 268.8,300.3 268.8,398.8 C 268.8,497.4 349.5,578.1 448.1,578.1 M 1165,219.6 C 1263.6,219.6 1344.2,300.3 1344.2,398.8 C 1344.2,497.4 1263.6,578.1 1165,578.1 M 1165,219.6 C 1066.4,219.6 985.8,300.3 985.8,398.8 C 985.8,497.4 1066.4,578.1 1165,578.1 M 286.8,-380.8 L 1245.6,-380.8 C 1344.2,-380.8 1478.6,-380.8 1514.5,-362.9 C 1550.3,-345 1577.2,-318.1 1595.1,-291.2 C 1613.1,-246.4 1613.1,-201.6 1613.1,-103 L 1613.1,587 C 1613.1,685.6 1587,716.6 1569.9,747.5 C 1554.4,775.2 1503.1,811.9 1478.6,829.8 C 1450.9,848.5 1384.1,873.8 1285.6,873.8 L 286.8,873.8 C 188.2,873.8 134.4,873.8 98.6,846.9 C 62.7,829 35.8,802.1 17.9,775.2 C 0,730.4 0,685.6 0,587 L 0,-94 C 0,-201.6 0,-246.4 17.9,-291.2 C 35.8,-318.1 62.7,-345 98.6,-362.9 C 134.4,-380.8 188.2,-380.8 286.8,-380.8"/>
<path class="lockupWord" d="M 2149.9,0 L 2149.9,583.8 L 1932.7,583.8 L 1932.7,697 L 2494.3,697 L 2494.3,583.8 L 2278.1,583.8 L 2278.1,0 L 2149.9,0 M 2786.7,0 L 2777.4,76 L 2777.4,311.2 Q 2777.4,355.9 2749.5,378 Q 2721.6,400 2673.6,400 Q 2634.2,400 2594.2,384.6 Q 2554.1,369.2 2522.8,340.3 L 2460.1,422.6 Q 2511.2,465.5 2565.6,484.1 Q 2620,502.7 2683.6,502.7 Q 2785,502.7 2841.7,451.8 Q 2898.3,401 2898.3,311.2 L 2898.3,0 L 2786.7,0 M 2637.2,-9.7 Q 2582.8,-9.7 2540.2,10.4 Q 2497.6,30.4 2473.4,67.1 Q 2449.2,103.8 2449.2,152 Q 2449.2,194.2 2466.9,224.6 Q 2484.5,255.1 2513.3,271.6 Q 2537.6,286.4 2568.6,292.6 Q 2599.6,298.8 2634.3,298.8 L 2787.6,298.8 L 2787.6,208.5 L 2651.9,208.5 Q 2635.5,208.5 2619.6,205.6 Q 2603.8,202.8 2591.9,194.2 Q 2582.3,187 2576.7,176.2 Q 2571.2,165.4 2571.2,151.6 Q 2571.2,122.7 2593.8,105.6 Q 2616.3,88.4 2654.1,88.4 Q 2687.8,88.4 2715.7,103.2 Q 2743.6,118 2760.5,144 Q 2777.4,169.9 2777.4,203 L 2810.7,139.5 Q 2797.4,87.6 2771.1,54.5 Q 2744.8,21.3 2710.5,5.8 Q 2676.2,-9.7 2637.2,-9.7 M 3006.6,-204 L 3006.6,493 L 3127.5,493 L 3127.5,360 L 3098.3,351.6 Q 3111.3,409.7 3137.3,442.4 Q 3163.4,475.2 3197.9,488.9 Q 3232.4,502.7 3269.8,502.7 Q 3335.2,502.7 3382.6,469.2 Q 3430,435.7 3455.5,377.6 Q 3481,319.6 3481,246 Q 3481,166.2 3452.6,108.7 Q 3424.3,51.2 3376.4,20.8 Q 3328.5,-9.7 3269.8,-9.7 Q 3230.1,-9.7 3195.1,6.2 Q 3160,22.1 3135.6,54.6 Q 3111.2,87.1 3101.8,136.3 L 3127.5,134.1 L 3127.5,-204 L 3006.6,-204 M 3237.4,101.5 Q 3274.5,101.5 3301.7,119.2 Q 3329,137 3344,169.7 Q 3359,202.4 3359,246 Q 3359,290.2 3344,322.9 Q 3329,355.6 3301.7,373.3 Q 3274.5,391.1 3237.4,391.1 Q 3200.8,391.1 3173.5,373.1 Q 3146.2,355 3131.4,322.6 Q 3116.6,290.2 3116.6,246 Q 3116.6,202.4 3131.4,170 Q 3146.2,137.5 3173.5,119.5 Q 3200.8,101.5 3237.4,101.5 M 3790.8,-9.7 Q 3727.2,-9.7 3681.1,10.9 Q 3635.1,31.6 3605.8,67.4 Q 3576.4,103.2 3562.5,148.7 Q 3548.6,194.2 3548.6,243.6 Q 3548.6,291.8 3562.3,338 Q 3576,384.2 3604.1,421.3 Q 3632.1,458.4 3676.6,480.6 Q 3721.2,502.7 3782.8,502.7 Q 3840.3,502.7 3883.2,483.2 Q 3926.1,463.7 3954.3,429.1 Q 3982.5,394.6 3996.6,349.2 Q 4010.7,303.8 4010.7,252.1 Q 4010.7,244.8 4010.2,232.2 Q 4009.7,219.7 4007.7,205.9 L 3670.1,205.9 Q 3674.8,151.8 3709.6,124.1 Q 3744.4,96.4 3796.8,96.4 Q 3835.9,96.4 3871.2,109.6 Q 3906.6,122.8 3934.6,148.7 L 3996.4,66.5 Q 3962.7,39.2 3931.6,22.3 Q 3900.4,5.5 3866.9,-2.1 Q 3833.4,-9.7 3790.8,-9.7 M 3890.9,266.8 Q 3892.9,274.8 3893.9,282.8 Q 3895,290.8 3895,298.2 Q 3895,319.4 3887.3,338.1 Q 3879.7,356.8 3865.4,371 Q 3851.2,385.2 3831,393.3 Q 3810.8,401.4 3785.3,401.4 Q 3747.9,401.4 3722.8,385.9 Q 3697.7,370.4 3684.6,346.4 Q 3671.5,322.3 3668.5,295.8 L 3931.2,295.8 L 3890.9,266.8 M 4108.4,0 L 4108.4,697 L 4311,697 Q 4484.2,697 4579.3,604.8 Q 4674.4,512.6 4674.4,343 Q 4674.4,177 4580.6,88.5 Q 4486.8,0 4310,0 L 4108.4,0 M 4235.1,116.3 L 4297.5,116.3 Q 4376.4,116.3 4432.2,136.9 Q 4488,157.5 4517.4,208.2 Q 4546.8,258.8 4546.8,347.7 Q 4546.8,434.8 4518.2,485.9 Q 4489.6,537 4436.4,558.9 Q 4383.2,580.7 4308.8,580.7 L 4235.1,580.7 L 4235.1,116.3 M 4985.8,-9.7 Q 4922.2,-9.7 4876.1,10.9 Q 4830.1,31.6 4800.8,67.4 Q 4771.4,103.2 4757.5,148.7 Q 4743.6,194.2 4743.6,243.6 Q 4743.6,291.8 4757.3,338 Q 4771,384.2 4799.1,421.3 Q 4827.1,458.4 4871.6,480.6 Q 4916.2,502.7 4977.8,502.7 Q 5035.3,502.7 5078.2,483.2 Q 5121.1,463.7 5149.3,429.1 Q 5177.5,394.6 5191.6,349.2 Q 5205.7,303.8 5205.7,252.1 Q 5205.7,244.8 5205.2,232.2 Q 5204.7,219.7 5202.7,205.9 L 4865.1,205.9 Q 4869.8,151.8 4904.6,124.1 Q 4939.4,96.4 4991.8,96.4 Q 5030.9,96.4 5066.2,109.6 Q 5101.6,122.8 5129.6,148.7 L 5191.4,66.5 Q 5157.7,39.2 5126.6,22.3 Q 5095.4,5.5 5061.9,-2.1 Q 5028.4,-9.7 4985.8,-9.7 M 5085.9,266.8 Q 5087.9,274.8 5088.9,282.8 Q 5090,290.8 5090,298.2 Q 5090,319.4 5082.3,338.1 Q 5074.7,356.8 5060.4,371 Q 5046.2,385.2 5026,393.3 Q 5005.8,401.4 4980.3,401.4 Q 4942.9,401.4 4917.8,385.9 Q 4892.7,370.4 4879.6,346.4 Q 4866.5,322.3 4863.5,295.8 L 5126.2,295.8 L 5085.9,266.8 M 5513.8,-9.7 Q 5454.3,-9.7 5409.5,11.4 Q 5364.8,32.6 5334.7,68.9 Q 5304.6,105.2 5289.6,151.2 Q 5274.6,197.2 5274.6,247 Q 5274.6,296.3 5289.6,342.3 Q 5304.6,388.3 5334.7,424.4 Q 5364.8,460.4 5409.5,481.6 Q 5454.3,502.7 5513.8,502.7 Q 5588.2,502.7 5643.3,467 Q 5698.3,431.3 5725,358 L 5618.6,316.1 Q 5606.8,351.9 5581.7,374.6 Q 5556.6,397.2 5513.8,397.2 Q 5472.6,397.2 5446.5,375.4 Q 5420.4,353.6 5408.2,319.3 Q 5396.1,285 5396.1,247 Q 5396.1,209 5408.2,174.2 Q 5420.4,139.4 5446.5,117.8 Q 5472.6,96.2 5513.8,96.2 Q 5556.6,96.2 5581.7,118.7 Q 5606.8,141.1 5618.6,177.4 L 5725,135.5 Q 5698.3,62.1 5643.3,26.2 Q 5588.2,-9.7 5513.8,-9.7 M 6143.3,0 L 5999.5,227.1 L 5921,139.4 L 5921,292 L 6112.1,493 L 6267,493 L 6088.4,308.8 L 6288,0 L 6143.3,0 M 5809.6,0 L 5809.6,697 L 5931.5,697 L 5931.5,0 L 5809.6,0" fill="#111111"/>
<path class="lockupSuffix" d="M 6340.5,0 L 6340.5,130.6 L 6470.8,130.6 L 6470.8,0 L 6340.5,0 M 6691.1,-9.7 Q 6641.1,-9.7 6608,20.8 Q 6575,51.4 6575,118 L 6575,697 L 6696,697 L 6696,141.8 Q 6696,120.6 6706,111.6 Q 6716,102.5 6732.1,102.5 Q 6740.6,102.5 6749.6,104.2 Q 6758.6,105.9 6768.4,108.8 L 6768.4,5.4 Q 6748,-2.7 6727.6,-6.2 Q 6707.2,-9.7 6691.1,-9.7 M 6843.6,0 L 6843.6,493 L 6965.1,493 L 6965.1,0 L 6843.6,0 M 6839.5,570.2 L 6839.5,697 L 6969.7,697 L 6969.7,570.2 L 6839.5,570.2 M 7078.6,0 L 7078.6,493 L 7200.5,493 L 7200.5,381.8 L 7180.5,378.8 Q 7193.4,423.5 7218.5,450.5 Q 7243.6,477.6 7276.8,490.1 Q 7310,502.7 7345.4,502.7 Q 7429.2,502.7 7476.3,455.2 Q 7523.4,407.7 7523.4,321.4 L 7523.4,0 L 7401.4,0 L 7401.4,276.4 Q 7401.4,339.1 7379,368.1 Q 7356.5,397.2 7308.9,397.2 Q 7273,397.2 7248.9,380.4 Q 7224.9,363.7 7212.7,328.2 Q 7200.5,292.8 7200.5,237 L 7200.5,0 L 7078.6,0 M 7965.3,0 L 7821.5,227.1 L 7743,139.4 L 7743,292 L 7934.1,493 L 8089,493 L 7910.4,308.8 L 8110,0 L 7965.3,0 M 7631.6,0 L 7631.6,697 L 7753.5,697 L 7753.5,0 L 7631.6,0" fill="#595959"/>
</g>
</svg>
